<?xml version="1.0" encoding="UTF-8"?>
<svg id="Layer_1" data-name="Layer 1" xmlns="http://www.w3.org/2000/svg" viewBox="0 0 510 407.84">
  <path d="m502.27,407.84H7.73c-4.27,0-7.73-3.46-7.73-7.73V7.75C0,3.48,3.46.02,7.73.02h346.15c4.27,0,7.73,3.46,7.73,7.73s-3.46,7.73-7.73,7.73H15.45v376.9h486.82c4.27,0,7.73,3.46,7.73,7.73s-3.46,7.73-7.73,7.73Z"/>
  <path d="m502.27,407.84c-4.27,0-7.73-3.46-7.73-7.73V15.48h-20.92c-4.27,0-7.73-3.46-7.73-7.73S469.35.02,473.62.02h28.65c4.27,0,7.73,3.46,7.73,7.73v392.36c0,4.27-3.46,7.73-7.73,7.73Z"/>
  <path d="m495.5,123.3H14.5c-8.01,0-14.5-3.46-14.5-7.73s6.49-7.73,14.5-7.73h481c8.01,0,14.5,3.46,14.5,7.73,0,4.27-6.49,7.73-14.5,7.73Z"/>
  <path d="m307.98,178.33l-97.17,168.31c-1.62,2.8-5.93,3.34-9.62,1.21-3.7-2.14-5.38-6.14-3.77-8.94l97.17-168.31c1.62-2.8,5.93-3.34,9.62-1.21,3.7,2.14,5.38,6.14,3.77,8.94Z"/>
  <path d="m170.34,223.14l-104.64,38.09c-1.74.63-4.34-2.1-5.8-6.12s-1.23-7.78.51-8.41l104.64-38.09c1.74-.63,4.34,2.1,5.8,6.12,1.46,4.01,1.23,7.78-.51,8.41Z"/>
  <path d="m169.12,299.37l-104.64-38.09c-1.74-.63-1.97-4.4-.51-8.41s4.06-6.75,5.8-6.12l104.64,38.09c1.74.63,1.97,4.4.51,8.41-1.46,4.01-4.06,6.75-5.8,6.12Z"/>
  <path d="m338.08,282.26l104.64-38.09c1.74-.63,4.34,2.1,5.8,6.12,1.46,4.01,1.23,7.78-.51,8.41l-104.64,38.09c-1.74.63-4.34-2.1-5.8-6.12-1.46-4.01-1.23-7.78.51-8.41Z"/>
  <path d="m339.29,206.02l104.64,38.09c1.74.63,1.97,4.4.51,8.41s-4.06,6.75-5.8,6.12l-104.64-38.09c-1.74-.63-1.97-4.4-.51-8.41,1.46-4.01,4.06-6.75,5.8-6.12Z"/>
  <path d="m495.5,15.46H14.5C6.49,15.46,0,12,0,7.73S6.49,0,14.5,0h481c8.01,0,14.5,3.46,14.5,7.73,0,4.27-6.49,7.73-14.5,7.73Z"/>
  <path d="m69.37,95.14c-18.47,0-33.49-15.02-33.49-33.49s15.02-33.49,33.49-33.49,33.48,15.02,33.48,33.49-15.02,33.49-33.48,33.49Zm0-51.52c-9.94,0-18.03,8.09-18.03,18.03s8.09,18.03,18.03,18.03,18.03-8.09,18.03-18.03-8.09-18.03-18.03-18.03Z"/>
  <path d="m151.79,95.14c-18.47,0-33.49-15.02-33.49-33.49s15.02-33.49,33.49-33.49,33.49,15.02,33.49,33.49-15.02,33.49-33.49,33.49Zm0-51.52c-9.94,0-18.03,8.09-18.03,18.03s8.09,18.03,18.03,18.03,18.03-8.09,18.03-18.03-8.09-18.03-18.03-18.03Z"/>
  <path d="m234.22,95.14c-18.47,0-33.49-15.02-33.49-33.49s15.02-33.49,33.49-33.49,33.48,15.02,33.48,33.49-15.02,33.49-33.48,33.49Zm0-51.52c-9.95,0-18.03,8.09-18.03,18.03s8.09,18.03,18.03,18.03,18.03-8.09,18.03-18.03-8.09-18.03-18.03-18.03Z"/>
</svg>